#!OML:ASF E:/inclinewalkrobotboard/Project1/Captureday1/Session1/subject1.ASF
:FULLY-SPECIFIED
:DEGREES
76
root 0 0 0 -1.6250493571109108 0.9268492379138493 -0.3614127239462501
lowerback 9.66402350466305 -1.667435514338527 -2.1598442497601926
upperback -0.0010909461859386071 -2.3199795347588843 2.3245696611502984
thorax -5.263964563933119 -1.0796505499476536 3.972173964929704
lowerneck -18.540846857553372 -2.233497815663243 -2.010596091510802
upperneck 21.78358001516215 -2.632009427007037 -0.44876338391703263
head 10.019777810286152 -1.3422645579328445 -0.19776406806067998
rclavicle -1.2528465034761082E-15 -3.3022371252403663E-16
rhumerus -35.90371503237448 -24.51104008467793 -77.26453708729338
rradius 18.35678099995183
rwrist 7.6744442676994415
rhand -17.92521740710455 25.22509247769586
rfingers 7.125020000000022
rthumb 8.338594545306307 -4.587708260409478
lclavicle -2.696198857398963E-15 -1.0150717120111068E-15
lhumerus -27.57788293350144 -2.9601502263620185 80.85243459799035
lradius 31.3771936328685
lwrist 7.4344281975800985
lhand -27.770248578716348 25.84459095915422
lfingers 7.125019999999999
lthumb -1.1841407163784874 55.84529341384568
rfemur -22.58342690238366 6.526805423543516 22.785529484596807
rtibia 20.51522058795578
rfoot -9.022270532209813 -7.521297496571268
rtoes 3.90533048976555
lfemur 15.365722677951034 -3.489843516472228 -26.813460579839706
ltibia 28.42948469316487
lfoot -5.569935772980434 -9.687992746551997
ltoes -8.850396577448333
77
root 0 0 0 -2.167933748202497 0.49602392196064304 -1.3908728044577012
lowerback 9.472222903490099 -1.607251224780779 -1.1586627533311245
upperback -0.11336171572651622 -2.1209707686777453 2.463708254631211
thorax -5.334778015869866 -1.00119769070095 3.5381444549821595
lowerneck -18.013049946554574 -2.095056519098732 -1.7431959802031844
upperneck 21.893422127774535 -2.453861464939056 -0.6327883980842757
head 9.938229712275433 -1.2646176980280734 -0.2715277717460948
rclavicle -1.4999775851505486E-15 -1.1966004237742232E-15
rhumerus -36.058934968465245 -24.657360842657564 -77.2617358675397
rradius 17.996821623645253
rwrist 8.224912692957378
rhand -17.85183487180404 25.321842362306107
rfingers 7.1250200000000214
rthumb 8.409674269541735 -4.480512039954959
lclavicle -3.644107600459595E-15 -2.0306317858300518E-15
lhumerus -28.7757999388953 -2.4262160587539316 81.53690894451726
lradius 30.656442492293657
lwrist 7.2346660270342245
lhand -27.637213058005734 25.642163971337993
lfingers 7.125020000000007
lthumb -1.048726010042655 55.633581247553
rfemur -19.892125255159797 6.61637783497493 24.259626396552388
rtibia 21.982756936967853
rfoot -9.304437749656724 -5.697720504026318
rtoes 7.4375014028568875
lfemur 8.607661492445544 -1.9273574289214914 -22.36586701185902
ltibia 51.16067215243109
lfoot 11.224763918159354 -19.229885190789194
ltoes -1.3627916649251866
78
root 0 0 0 -3.4163718136884755 -0.7906312009900325 -4.116600143037948
lowerback 11.345462858631585 -1.18898626483647 1.3177553812408918
upperback 0.7839292743542865 -1.239098997953599 2.972908139636228
thorax -5.524201413498599 -0.614277169379895 2.561119157317295
lowerneck -16.53333574401183 -2.49153013680076 -1.6851231618932405
upperneck 17.712211314014557 -2.856415895277877 -0.39245532697744356
head 8.209981833325644 -1.5269025109651833 -0.2103015386032323
rclavicle -1.0149464305077467E-15 -4.0718330050139415E-15
rhumerus -35.331129868756186 -23.92336324036453 -77.65863750753647
rradius 18.230248029296746
rwrist 8.366757369813172
rhand -17.805678846463508 25.788974730651006
rfingers 7.1250200000000214
rthumb 8.453197047013614 -4.007859497084453
lclavicle -3.508186832170236E-15 -5.394855986470527E-15
lhumerus -29.657156916045906 -2.0131656948911583 82.94618471263827
lradius 29.53519922565112
lwrist 6.740188160640392
lhand -27.56418054191301 25.024926148071135
lfingers 7.125020000000017
lthumb -0.9719223503682635 55.01245568733613
rfemur -18.900129230869698 6.852276384138857 26.176568800726244
rtibia 25.189607078846507
rfoot -9.471148990208214 -5.643831918805613
rtoes 9.760074041368544
lfemur -8.437525030677186 1.1424587280518992 -14.375127477093667
ltibia 63.80237738442005
lfoot 14.005327088468484 -18.681800156703474
ltoes -6.513269083758924
79
root 0 0 0 -3.8377995361704964 -2.0547966208771746 -5.137583909010222
lowerback 11.750449614711787 -0.5373248636324776 2.4587014055720875
upperback 0.6571174282933843 -0.22211616543027035 3.0174202464175526
thorax -5.910155488248635 -0.13391908412611098 1.8116201976406439
lowerneck -15.887459969005349 -2.6973392990607223 -1.5229214374472286
upperneck 18.933203026664703 -3.2187176553595886 -0.19358963027857
head 8.627780456388898 -1.6682994984002584 -0.22006241984994768
rclavicle -1.4341996924488715E-15 -5.351554534604619E-15
rhumerus -34.45073502173043 -23.023134025953983 -78.05255474623802
rradius 18.63174501626262
rwrist 8.345884611603058
rhand -17.75870559631468 26.23642560038757
rfingers 7.1250200000000214
rthumb 8.498112419001544 -3.554170697318554
lclavicle -3.764394927713092E-15 -6.579740153616416E-15
lhumerus -30.50022480169868 -1.2891881653164867 83.56176684146983
lradius 28.526888652309918
lwrist 6.476184543298827
lhand -27.669305226236666 24.618142839833542
lfingers 7.125020000000023
lthumb -1.0727266695727469 54.60401379563335
rfemur -14.437147077183884 7.510791762674545 29.08676732355265
rtibia 25.974475389686592
rfoot -12.051436953438794 -5.819118022458801
rtoes 10.608259368511563
lfemur -17.784937983300708 3.5665358602499326 -11.769896096031088
ltibia 71.06428339101532
lfoot 8.361962853986704 -14.737834772446504
ltoes -9.666142937857565
80
root 0 0 0 -3.93112917465697 -3.676232892734034 -5.9453298575015765
lowerback 11.7481338074576 0.4138258647506324 3.719326104744085
upperback 0.24447567693847927 1.1935498196879415 2.7275497419436117
thorax -6.319590821553554 0.525967688356495 0.5782220670288508
lowerneck -15.87688841171898 -2.883480175486104 -1.1147877183810868
upperneck 19.798119783767902 -3.644727736044752 0.029405240426174428
head 9.002214836081626 -1.795565489664466 -0.2679204237562444
rclavicle -4.502608823358975E-15 -2.7285291037881333E-15
rhumerus -33.67517851008757 -21.741998898795106 -78.67449163405153
rradius 19.665753021990334
rwrist 7.659559053280611
rhand -17.838632943330484 26.266121452930122
rfingers 7.125020000000019
rthumb 8.422599154991733 -3.529541770864249
lclavicle -6.549588205667715E-15 -3.6405952841419174E-15
lhumerus -31.627779513733408 -0.45148322958524134 83.98839636876193
lradius 27.527399948576402
lwrist 6.312719627692936
lhand -27.667460569178722 24.590511891968017
lfingers 7.125020000000028
lthumb -1.0709861904872673 54.57756747545449
rfemur -6.688152029704393 8.38568963262297 33.94402332182518
rtibia 25.807864722229727
rfoot -18.938501425606184 -6.062503795709765
rtoes 10.695960140373932
lfemur -22.756052939515882 4.579845540540765 -11.919060238670433
ltibia 71.60493952209143
lfoot 3.903879447715891 -11.282945849196956
ltoes -7.846529682580648
81
root 0 0 0 -2.974652372107861 -4.734937345008465 -6.862494017921627
lowerback 10.26903699401756 1.2171675588689281 5.340187290065693
upperback -0.25182107118476027 2.4235493887115753 2.460641065755671
thorax -5.92545556666148 1.0877387063918453 -0.7856214946491357
lowerneck -17.427164277595114 -3.011984411710366 -1.3334722295854422
upperneck 21.691167723023838 -3.9457902846421304 0.2403035120953203
head 9.83934299817682 -1.8668729481323496 -0.22960722870053601
rclavicle -6.967883583909345E-15 1.3746312671244837E-15
rhumerus -32.64084324767862 -19.927311517382385 -79.40928182586956
rradius 21.59038875831491
rwrist 5.986761970875354
rhand -18.096374637366388 26.059269559326715
rfingers 7.125020000000018
rthumb 8.175923297283571 -3.747721653612764
lclavicle -8.588332769350258E-15 5.58596137682296E-16
lhumerus -32.48528626584299 -0.08511673190461103 84.22057056192746
lradius 27.05747847197368
lwrist 6.2616089793093295
lhand -27.57142422328925 24.711995790857266
lfingers 7.125020000000028
lthumb -0.9750978931558336 54.69988637862663
rfemur -5.060244233099366 8.350496971982023 34.72605131858734
rtibia 25.30269607617799
rfoot -21.58493766459891 -6.3150222883371585
rtoes 10.209508835987595
lfemur -26.707045613107486 4.548175485119002 -12.527102042502703
ltibia 63.9505581488749
lfoot -0.9412783878846511 -6.867671238141748
ltoes -4.1506714813577865
82
root 0 0 0 -1.960382244953334 -5.542189692927293 -7.467354178194011
lowerback 10.56152552931135 1.6842050207532062 6.37782197021278
upperback 0.2314915540477293 3.1446606253638087 2.319856270583073
thorax -5.484837455185835 1.4150879604104651 -1.6100332199155947
lowerneck -18.696519269233843 -3.2168895454201807 -1.7883546583151912
upperneck 20.897607096685938 -4.166316656416755 0.29192648334327553
head 9.74413873679264 -1.977994172404507 -0.17474569964884074
rclavicle -7.321962925899885E-15 2.791391137297032E-15
rhumerus -31.511068797621665 -17.85121950211343 -80.2820053691612
rradius 23.586891862907116
rwrist 4.5593516683064665
rhand -18.393218205153786 26.104008845825234
rfingers 7.125020000000016
rthumb 7.888772267214011 -3.731767754187473
lclavicle -8.252836740912972E-15 2.1114642432305426E-15
lhumerus -32.96476824790964 0.21101763767883125 84.42784719608511
lradius 26.69053296343497
lwrist 6.1756288133981005
lhand -27.555837006875365 24.5371737432246
lfingers 7.1250200000000286
lthumb -0.9593207386905149 54.5281010658429
rfemur -4.436216203710548 8.300332005270786 34.56058773029384
rtibia 24.674960290159618
rfoot -22.096666222186848 -6.61296976857375
rtoes 9.790740006404533
lfemur -29.448117568071236 3.2562574408848954 -13.221220892284142
ltibia 50.07116398382597
lfoot -5.526073851002009 -1.9076875884499205
ltoes -1.3783482537260205
83
root 0 0 0 -1.0594310955674915 -6.137561755558657 -7.45764119838989
lowerback 10.537274242995432 1.9813823044727217 6.547636469954694
upperback 0.6834138663097854 3.5049629133421423 2.070185118258499
thorax -4.9672306658432435 1.5905951632313062 -2.020231097378061
lowerneck -18.227876316297607 -3.1037391221346753 -1.840679020449254
upperneck 19.327015277733697 -3.9241715800739847 0.29814918382429534
head 9.063086649512162 -1.9076252631119577 -0.1202032266924215
rclavicle -7.262956446347284E-15 1.9900066531593757E-15
rhumerus -30.0638318944095 -15.241207779697437 -81.11604750340588
rradius 25.875922020215285
rwrist 2.928715066365002
rhand -18.72138901252627 26.460061897361335
rfingers 7.125020000000012
rthumb 7.571405626519317 -3.4045693463900975
lclavicle -7.522663401142746E-15 1.5974535859869858E-15
lhumerus -33.50988628494843 1.1181855989282816 84.53465396650958
lradius 25.760749428125543
lwrist 5.936464459445767
lhand -27.597689087235715 24.734844315698172
lfingers 7.125020000000028
lthumb -1.0023107491930574 54.73701483322006
rfemur -1.4382474215934158 8.411802144977713 34.96024747986254
rtibia 24.517311371005906
rfoot -22.240077243546903 -6.532583920427097
rtoes 6.310415192639121
lfemur -27.251352158820715 -2.5723388941340244 -13.249022427316582
ltibia 23.647958768885722
lfoot -5.596757003198434 2.9897090035418823
ltoes 0.18133594159268895
